<?xml version="1.0" standalone="no"?>
<!DOCTYPE svg PUBLIC "-//W3C//DTD SVG 1.1//EN" "http://www.w3.org/Graphics/SVG/1.1/DTD/svg11.dtd">
<svg xmlns="http://www.w3.org/2000/svg" xmlns:xlink="http://www.w3.org/1999/xlink" xmlns:serif="http://www.serif.com/" width="460" height="91" viewBox="0 0 460 91" version="1.1" xml:space="preserve" style="fill-rule:evenodd;clip-rule:evenodd;stroke-linejoin:round;stroke-miterlimit:2;"><path d="M159.885,52.154l-0,33.756l-103.638,-34.084l0,-46.803l106.566,35.05c-1.528,2.128 -2.928,5.797 -2.928,12.081m-107.866,-0.056l-42.828,23.325l-0,-35.541c-0,-4.253 -1.788,-7.222 -3.413,-9.041l46.241,-25.181l0,46.438Zm115.716,-14.853l-112.941,-37.147c-0.016,-0.007 -0.031,-0.007 -0.047,-0.01c-0.069,-0.022 -0.137,-0.028 -0.206,-0.043c-0.103,-0.019 -0.203,-0.041 -0.309,-0.044c-0.072,-0.003 -0.141,0.003 -0.213,0.006c-0.1,0.006 -0.2,0.013 -0.3,0.034c-0.075,0.016 -0.144,0.038 -0.212,0.06c-0.097,0.031 -0.191,0.065 -0.285,0.109c-0.031,0.016 -0.069,0.022 -0.1,0.038l-52.019,28.328c-0.668,0.362 -1.09,1.056 -1.103,1.819c-0.012,0.759 0.385,1.468 1.038,1.856c0.04,0.022 3.925,2.381 3.925,7.631l-0,39.097c-0,0.747 0.394,1.434 1.034,1.816c0.331,0.2 0.703,0.296 1.078,0.296c0.347,0 0.694,-0.084 1.013,-0.256l46.253,-25.187l106.997,35.19c0.215,0.072 0.437,0.107 0.662,0.107c0.438,-0 0.872,-0.138 1.238,-0.404c0.55,-0.396 0.875,-1.031 0.875,-1.709l-0,-36.678c-0,-8.959 3.078,-10.666 3.487,-10.85c0.95,-0.144 1.591,-0.9 1.685,-1.866c0.093,-0.984 -0.61,-1.884 -1.55,-2.193" style="fill-rule:nonzero;"/><path d="M306.277,22.035l-1.609,-0c-0.322,-0 -0.584,-0.263 -0.584,-0.585l-0,-2.825c-0,-0.322 -0.263,-0.587 -0.585,-0.587l-0.587,-0c-0.322,-0 -0.585,0.265 -0.585,0.587l0,2.825c0,0.322 -0.259,0.585 -0.584,0.585l-17.697,-0c-0.322,-0 -0.584,-0.263 -0.584,-0.585l-0,-2.825c-0,-0.322 -0.263,-0.587 -0.585,-0.587l-0.584,-0c-0.322,-0 -0.584,0.265 -0.584,0.587l-0,2.825c-0,0.322 -0.263,0.585 -0.585,0.585l-5.628,-0c-0.322,-0 -0.431,0.212 -0.24,0.471l0.59,0.81c0.191,0.262 0.606,0.475 0.928,0.475l4.35,-0c0.322,-0 0.585,0.262 0.585,0.584l-0,22.875c-0,0.322 0.262,0.585 0.584,0.585l0.584,-0c0.322,-0 0.585,-0.263 0.585,-0.585l-0,-22.875c-0,-0.322 0.262,-0.584 0.584,-0.584l17.697,-0c0.325,-0 0.584,0.262 0.584,0.584l0,20.622c0,0.322 -0.259,0.584 -0.584,0.584l-8.606,0c-0.322,0 -0.435,0.216 -0.247,0.475l0.572,0.804c0.184,0.262 0.6,0.478 0.922,0.478l9.115,-0c0.322,-0 0.585,-0.266 0.585,-0.588l-0,-22.375c-0,-0.322 0.262,-0.584 0.584,-0.584l1.609,-0c0.322,-0 0.585,-0.263 0.585,-0.585l-0,-0.587c-0,-0.322 -0.263,-0.584 -0.585,-0.584" style="fill-rule:nonzero;"/><path d="M199.254,30.494l-0.003,-0c-0,-0.006 0.003,-0.009 0.003,-0.016l-0,0.016Zm-1.757,-0l0,-0.016c0,0.007 0.004,0.01 0.004,0.016l-0.004,-0Zm-0.29,6.325c0.322,-0 0.522,0.281 0.522,0.603l-0.525,9.772c-0.016,0.322 0.231,0.597 0.553,0.616l0.584,0.031c0.322,0.015 0.6,-0.231 0.616,-0.553l0.531,-9.872l0,0.006c0,-0.322 0.291,-0.603 0.613,-0.603l3.737,-0c0.322,-0 0.584,0.262 0.584,0.584l0,9.847c0,0.322 0.263,0.585 0.585,0.585l0.584,-0c0.322,-0 0.585,-0.263 0.585,-0.585l-0,-28.625c-0,-0.322 -0.263,-0.587 -0.585,-0.587l-0.584,-0c-0.322,-0 -0.585,0.265 -0.585,0.587l0,11.285c0,0.321 -0.262,0.584 -0.584,0.584l-4,-0c-0.322,-0 -0.584,-0.263 -0.584,-0.584l-0,-8.888c-0,-0.322 -0.263,-0.587 -0.585,-0.587l-0.584,-0c-0.322,-0 -0.588,0.265 -0.588,0.587l0,8.888c0,0.321 -0.259,0.584 -0.581,0.584l-0.887,-0c-0.322,-0 -0.588,0.262 -0.588,0.584l0,0.585c0,0.322 0.266,0.587 0.588,0.587l7.809,0c0.322,0 0.584,0.26 0.584,0.581l0,1.65c0,0.322 -0.262,0.585 -0.584,0.585l-7.809,-0c-0.322,-0 -0.588,0.262 -0.588,0.584l0,0.585c0,0.321 0.266,0.584 0.588,0.584l1.178,-0Z" style="fill-rule:nonzero;"/><path d="M249.543,32.275c0,0.322 -0.259,0.581 -0.581,0.584l-7.641,0c-0.319,-0.003 -0.581,-0.262 -0.581,-0.584l-0,-1.531c-0,-0.322 0.262,-0.582 0.584,-0.582l7.635,0c0.322,0 0.584,0.26 0.584,0.582l0,1.531Zm0,4.453c0,0.319 -0.259,0.581 -0.581,0.581l-7.641,0c-0.319,0 -0.581,-0.262 -0.581,-0.581l-0,-1.531c-0,-0.322 0.262,-0.585 0.584,-0.585l7.635,0c0.322,0 0.584,0.263 0.584,0.585l0,1.531Zm1.756,-1.531c0,-0.322 0.26,-0.585 0.585,-0.585l7.631,0c0.325,0 0.584,0.263 0.584,0.585l0,1.531c0,0.319 -0.259,0.581 -0.581,0.581l-7.637,0c-0.322,0 -0.582,-0.262 -0.582,-0.581l0,-1.531Zm0,-4.453c0,-0.322 0.26,-0.582 0.585,-0.582l7.631,0c0.325,0 0.584,0.26 0.584,0.582l0,1.531c0,0.322 -0.259,0.581 -0.581,0.584l-7.637,0c-0.322,-0.003 -0.582,-0.262 -0.582,-0.584l0,-1.531Zm13.435,11.309l-12.85,0c-0.325,0 -0.585,-0.259 -0.585,-0.584l0,-1.819c0,-0.325 0.26,-0.584 0.585,-0.584l9.384,-0c0.322,-0 0.588,-0.263 0.588,-0.585l-0,-9.49c-0,-0.322 -0.266,-0.585 -0.588,-0.585l-9.384,0c-0.325,0 -0.585,-0.262 -0.585,-0.584l0,-1.822c0,-0.322 0.26,-0.584 0.585,-0.584l9.34,-0c0.322,-0 0.588,-0.263 0.588,-0.585l-0,-0.584c-0,-0.322 -0.266,-0.585 -0.588,-0.585l-9.384,0c-0.303,-0.021 -0.541,-0.268 -0.541,-0.575l0,-1.537c0,-0.322 0.26,-0.584 0.585,-0.584l10.887,-0c0.322,-0 0.585,0.262 0.585,0.584l-0,3.659c-0,0.322 0.262,0.585 0.584,0.585l0.584,-0c0.322,-0 0.585,-0.263 0.585,-0.585l-0,-5.412c-0,-0.322 -0.263,-0.588 -0.585,-0.588l-28.209,0c-0.319,0 -0.581,0.266 -0.581,0.588l-0,5.412c-0,0.322 0.262,0.585 0.581,0.585l0.587,-0c0.322,-0 0.585,-0.263 0.585,-0.585l-0,-3.659c-0,-0.322 0.262,-0.584 0.584,-0.584l10.888,-0c0.322,-0 0.584,0.262 0.584,0.584l0,1.537c0,0.307 -0.241,0.554 -0.544,0.575l-9.384,0c-0.322,0 -0.584,0.263 -0.584,0.585l-0,0.584c-0,0.322 0.262,0.585 0.584,0.585l9.344,-0c0.322,-0 0.584,0.262 0.584,0.584l0,1.822c0,0.322 -0.262,0.584 -0.584,0.584l-9.388,0c-0.322,0 -0.584,0.263 -0.584,0.585l-0,0.584c-0,0.031 0.012,0.053 0.015,0.081c-0.003,0.028 -0.015,0.053 -0.015,0.081l-0,8.744c-0,0.322 0.262,0.585 0.584,0.585l9.388,-0c0.322,-0 0.584,0.259 0.584,0.584l0,1.819c0,0.325 -0.262,0.584 -0.584,0.584l-12.85,0c-0.322,0 -0.432,0.216 -0.247,0.478l0.572,0.803c0.187,0.26 0.603,0.475 0.925,0.475l11.6,0c0.322,0 0.584,0.263 0.584,0.585l0,4.025c0,0.322 0.263,0.587 0.584,0.587l0.585,0c0.322,0 0.587,-0.265 0.587,-0.587l0,-4.025c0,-0.322 0.26,-0.585 0.585,-0.585l12.85,0c0.322,0 0.584,-0.262 0.584,-0.584l0,-0.584c0,-0.322 -0.262,-0.588 -0.584,-0.588" style="fill-rule:nonzero;"/><path d="M208.663,34.538l15.469,-7.669c0.006,-0.003 0.009,-0.009 0.015,-0.013c0.235,-0.075 0.407,-0.29 0.407,-0.546l-0,-5.31c-0,-0.322 -0.263,-0.584 -0.585,-0.584l-9.447,-0l0.975,-0.822c0.247,-0.206 0.3,-0.594 0.122,-0.863l-0.328,-0.484c-0.181,-0.266 -0.528,-0.316 -0.775,-0.106l-5.931,4.994c-0.244,0.206 -0.447,0.64 -0.447,0.962l0,1.113c0,0.321 0.203,0.415 0.447,0.209l3.856,-3.247l10.36,0l-0,3.425l-3.282,1.622l-2.506,-3.469c-0.187,-0.259 -0.606,-0.475 -0.928,-0.475l-0.991,0c-0.322,0 -0.431,0.216 -0.243,0.475l3.075,4.26l-2.688,1.328c-0.006,-0.013 -0.006,-0.028 -0.016,-0.041l-3.121,-4.269c-0.191,-0.259 -0.547,-0.3 -0.791,-0.09l-0.45,0.384c-0.244,0.209 -0.288,0.591 -0.097,0.853l2.891,3.947l-4.991,2.469c-0.291,0.144 -0.525,0.522 -0.525,0.844l0,0.778c0,0.322 0.234,0.468 0.525,0.325" style="fill-rule:nonzero;"/><path d="M278.734,44.412l-0,-17.941c-0,-0.322 -0.263,-0.584 -0.585,-0.584l-0.584,-0c-0.322,-0 -0.584,0.262 -0.584,0.584l-0,16.685c-0,0.321 0.212,0.737 0.475,0.925l0.803,0.575c0.262,0.187 0.475,0.078 0.475,-0.244" style="fill-rule:nonzero;"/><path d="M215.216,44.4l0.934,-0.028c0.322,-0.009 0.435,-0.231 0.247,-0.494l-3.447,-4.875c-0.187,-0.262 -0.603,-0.478 -0.925,-0.478l-0.978,0c-0.322,0 -0.434,0.216 -0.247,0.478l3.494,4.938c0.184,0.262 0.6,0.469 0.922,0.459" style="fill-rule:nonzero;"/><path d="M297.76,38.118l0.937,-0.028c0.319,-0.009 0.432,-0.231 0.244,-0.494l-5.215,-7.334c-0.185,-0.263 -0.6,-0.478 -0.922,-0.478l-0.982,-0c-0.321,-0 -0.431,0.215 -0.243,0.478l5.259,7.397c0.184,0.262 0.6,0.468 0.922,0.459" style="fill-rule:nonzero;"/><path d="M288.008,42.421c0.263,0.188 0.475,0.078 0.475,-0.244l0,-15.706c0,-0.322 -0.262,-0.587 -0.584,-0.587l-0.585,-0c-0.322,-0 -0.584,0.265 -0.584,0.587l-0,14.45c-0,0.322 0.212,0.738 0.475,0.925l0.803,0.575Z" style="fill-rule:nonzero;"/><path d="M221.629,36.829l-0.584,-0c0.322,-0 0.584,0.262 0.584,0.584l0,8.194c0,0.322 -0.262,0.584 -0.584,0.584l-4.544,0c-0.322,0 -0.431,0.213 -0.247,0.475l0.572,0.803c0.188,0.263 0.603,0.475 0.925,0.475l5.047,0c0.322,0 0.588,-0.262 0.588,-0.584l-0,-10.541l1.85,0c0.321,0 0.587,-0.262 0.587,-0.584l0,-0.584c0,-0.322 -0.266,-0.585 -0.587,-0.585l-1.266,0c-0.322,0 -0.584,-0.262 -0.584,-0.584l-0,0.584l-0,-1.965c-0,-0.322 -0.266,-0.585 -0.588,-0.585l-0.584,0c-0.322,0 -0.585,0.263 -0.585,0.585l0,1.381c0,0.322 -0.262,0.584 -0.584,0.584l-12.322,0c-0.322,0 -0.431,0.213 -0.247,0.475l0.566,0.8c0.187,0.263 0.603,0.478 0.925,0.478l11.662,0l0,0.01Z" style="fill-rule:nonzero;"/><path d="M223.969,36.829l-0.584,-0l-0,0.584c-0,-0.322 0.262,-0.584 0.584,-0.584" style="fill-rule:nonzero;"/><path d="M222.799,22.21l-0.585,0c0.322,0 0.585,0.263 0.585,0.585l-0,-0.585Z" style="fill-rule:nonzero;"/><path d="M207.689,64.47c-0.46,-0.484 -1.028,-0.728 -1.697,-0.728l-6.688,0c-0.668,0 -1.234,0.231 -1.697,0.694l-1.143,1.14c-0.463,0.466 -0.691,1.032 -0.691,1.7l0,17.838c0,0.672 0.228,1.237 0.691,1.7l1.109,1.109c0.463,0.46 1.038,0.691 1.731,0.691l6.688,-0c0.669,-0 1.237,-0.231 1.697,-0.691l1.109,-1.109c0.463,-0.488 0.694,-1.063 0.694,-1.734l-0,-7.829c-0,-0.921 -0.466,-1.384 -1.388,-1.384l-3.95,0c-0.922,0 -1.384,0.463 -1.384,1.384l-0,0.382c-0,0.925 0.462,1.384 1.384,1.384l0.835,0c0.922,0 1.384,0.463 1.384,1.388l0,3.671c0,0.925 -0.462,1.388 -1.384,1.388l-4.678,-0c-0.925,-0 -1.388,-0.463 -1.388,-1.388l0,-15.796c0,-0.922 0.463,-1.385 1.388,-1.385l4.678,0c0.922,0 1.384,0.463 1.384,1.385l0,3.393c0,0.925 0.463,1.388 1.384,1.388l0.347,-0c0.922,-0 1.388,-0.463 1.388,-1.388l-0,-4.397c-0,-0.668 -0.231,-1.234 -0.694,-1.7l-1.109,-1.106Z" style="fill-rule:nonzero;"/><path d="M227.33,63.674l-10.913,-0c-0.921,-0 -1.384,0.459 -1.384,1.384l0,19.953c0,0.672 0.231,1.238 0.694,1.697l1.106,1.109c0.463,0.532 1.028,0.797 1.7,0.797l8.797,0c0.925,0 1.384,-0.484 1.384,-1.453l0,-0.381c0,-0.878 -0.459,-1.319 -1.384,-1.319l-7.794,0c-0.925,0 -1.384,-0.484 -1.384,-1.453l-0,-5.231c-0,-0.878 0.459,-1.316 1.384,-1.316l7.794,0c0.925,0 1.384,-0.487 1.384,-1.456l0,-0.381c0,-0.878 -0.459,-1.316 -1.384,-1.316l-7.794,0c-0.925,0 -1.384,-0.484 -1.384,-1.456l-0,-4.641c-0,-0.925 0.459,-1.384 1.384,-1.384l7.794,-0c0.925,-0 1.384,-0.463 1.384,-1.388l0,-0.381c0,-0.925 -0.459,-1.384 -1.384,-1.384" style="fill-rule:nonzero;"/><path d="M246.555,63.674l-0.382,-0c-0.921,-0 -1.384,0.472 -1.384,1.418l0,12.194c0,0.256 0.025,1.091 -0.028,1.647c-0.022,0.244 -0.034,0.431 -0.244,0.494c-0.253,0.072 -0.431,-0.125 -0.59,-0.356c-0.332,-0.488 -0.688,-1.3 -0.766,-1.472l-5.578,-12.85c-0.3,-0.719 -0.831,-1.075 -1.594,-1.075l-0.694,-0c-0.922,-0 -1.384,0.472 -1.384,1.418l-0,22.138c-0,0.922 0.462,1.384 1.384,1.384l0.382,0c0.925,0 1.384,-0.462 1.384,-1.384l-0,-12.784c-0,-0.369 -0.075,-1.45 0.491,-1.669c0.506,-0.197 0.909,0.756 1.14,1.325l5.888,13.472c0.3,0.693 0.831,1.04 1.593,1.04l0.382,0c0.925,0 1.387,-0.462 1.387,-1.384l0,-22.138c0,-0.946 -0.462,-1.418 -1.387,-1.418" style="fill-rule:nonzero;"/><path d="M265.78,63.674l-10.913,-0c-0.921,-0 -1.384,0.459 -1.384,1.384l0,19.953c0,0.672 0.231,1.238 0.694,1.697l1.106,1.109c0.463,0.532 1.028,0.797 1.7,0.797l8.797,0c0.925,0 1.384,-0.484 1.384,-1.453l0,-0.381c0,-0.878 -0.459,-1.319 -1.384,-1.319l-7.794,0c-0.925,0 -1.384,-0.484 -1.384,-1.453l-0,-5.231c-0,-0.878 0.459,-1.316 1.384,-1.316l7.794,0c0.925,0 1.384,-0.487 1.384,-1.456l0,-0.381c0,-0.878 -0.459,-1.316 -1.384,-1.316l-7.794,0c-0.925,0 -1.384,-0.484 -1.384,-1.456l-0,-4.641c-0,-0.925 0.459,-1.384 1.384,-1.384l7.794,-0c0.925,-0 1.384,-0.463 1.384,-1.388l0,-0.381c0,-0.925 -0.459,-1.384 -1.384,-1.384" style="fill-rule:nonzero;"/><path d="M300.351,78.846l-3.325,-0c-0.416,-0 -0.734,-0.104 -0.953,-0.313c-0.219,-0.206 -0.328,-0.484 -0.328,-0.831c-0,-0.16 0.009,-0.288 0.034,-0.381l1.834,-9.179c0.185,-0.831 0.25,-1.246 1.041,-1.246c0.756,-0 0.853,0.415 1.038,1.246l1.906,9.179c0.022,0.093 0.034,0.231 0.034,0.418c0,0.738 -0.428,1.107 -1.281,1.107m1.975,-13.857c-0.184,-0.831 -0.684,-1.247 -1.491,-1.247l-4.362,0c-0.81,0 -1.306,0.416 -1.491,1.247l-4.4,22.1c-0.025,0.094 -0.034,0.219 -0.034,0.382c-0,0.346 0.109,0.625 0.331,0.831c0.216,0.209 0.534,0.312 0.95,0.312l0.416,0c0.809,0 1.306,-0.415 1.49,-1.247l0.866,-4.156c0.184,-0.831 0.681,-1.247 1.487,-1.247l5.232,0c0.809,0 1.306,0.416 1.49,1.247l0.866,4.156c0.184,0.832 0.681,1.247 1.491,1.247l0.415,0c0.853,0 1.281,-0.368 1.281,-1.109c0,-0.184 -0.012,-0.322 -0.034,-0.416l-4.503,-22.1Z" style="fill-rule:nonzero;"/><path d="M324.01,85.462l-7.76,0c-0.925,0 -1.387,-0.462 -1.387,-1.384l-0,-18.984c-0,-0.947 -0.46,-1.419 -1.385,-1.419l-0.381,-0c-0.922,-0 -1.387,0.472 -1.387,1.419l-0,19.987c-0,0.669 0.231,1.235 0.693,1.697l1.11,1.109c0.462,0.485 1.028,0.729 1.7,0.729l8.797,-0c0.925,-0 1.384,-0.463 1.384,-1.388l0,-0.381c0,-0.922 -0.459,-1.385 -1.384,-1.385" style="fill-rule:nonzero;"/><path d="M352.242,63.674l-0.416,-0c-0.831,-0 -1.341,0.415 -1.525,1.247l-4.434,19.328c-0.185,0.809 -0.347,1.212 -0.485,1.212c-0.137,0 -0.3,-0.403 -0.484,-1.212l-4.538,-19.328c-0.187,-0.832 -0.693,-1.247 -1.525,-1.247l-0.381,-0c-0.394,-0 -0.703,0.103 -0.937,0.312c-0.229,0.206 -0.344,0.472 -0.344,0.794c-0,0.072 0.022,0.222 0.069,0.453l5.368,22.169c0.21,0.809 0.716,1.212 1.525,1.212l2.528,0c0.832,0 1.341,-0.403 1.525,-1.212l5.266,-22.169c0.022,-0.094 0.034,-0.231 0.034,-0.416c0,-0.762 -0.415,-1.143 -1.246,-1.143" style="fill-rule:nonzero;"/><path d="M381.095,85.462l-7.759,0c-0.925,0 -1.385,-0.462 -1.385,-1.384l0,-18.984c0,-0.947 -0.462,-1.419 -1.387,-1.419l-0.382,-0c-0.921,-0 -1.384,0.472 -1.384,1.419l0,19.987c0,0.669 0.231,1.235 0.694,1.697l1.106,1.109c0.463,0.485 1.028,0.729 1.7,0.729l8.797,-0c0.925,-0 1.387,-0.463 1.387,-1.388l0,-0.381c0,-0.922 -0.462,-1.385 -1.387,-1.385" style="fill-rule:nonzero;"/><path d="M399.975,85.462l-7.76,0c-0.925,0 -1.387,-0.462 -1.387,-1.384l-0,-18.984c-0,-0.947 -0.46,-1.419 -1.385,-1.419l-0.381,-0c-0.922,-0 -1.384,0.472 -1.384,1.419l-0,19.987c-0,0.669 0.231,1.235 0.69,1.697l1.11,1.109c0.462,0.485 1.028,0.729 1.7,0.729l8.797,-0c0.925,-0 1.387,-0.463 1.387,-1.388l0,-0.381c0,-0.922 -0.462,-1.385 -1.387,-1.385" style="fill-rule:nonzero;"/><path d="M415.667,78.846l-3.328,-0c-0.413,-0 -0.732,-0.104 -0.95,-0.313c-0.222,-0.206 -0.332,-0.484 -0.332,-0.831c0,-0.16 0.013,-0.288 0.035,-0.381l1.837,-9.179c0.185,-0.831 0.532,-1.246 1.041,-1.246c0.506,-0 0.853,0.415 1.037,1.246l1.907,9.179c0.022,0.093 0.034,0.231 0.034,0.418c0,0.738 -0.428,1.107 -1.281,1.107m1.975,-13.857c-0.188,-0.831 -0.685,-1.247 -1.491,-1.247l-4.365,0c-0.81,0 -1.304,0.416 -1.491,1.247l-4.397,22.1c-0.025,0.094 -0.037,0.219 -0.037,0.382c-0,0.346 0.112,0.625 0.331,0.831c0.219,0.209 0.537,0.312 0.95,0.312l0.419,0c0.809,0 1.303,-0.415 1.49,-1.247l0.863,-4.156c0.187,-0.831 0.681,-1.247 1.49,-1.247l5.232,0c0.806,0 1.303,0.416 1.49,1.247l0.866,4.156c0.184,0.832 0.681,1.247 1.49,1.247l0.413,0c0.856,0 1.281,-0.368 1.281,-1.109c0,-0.184 -0.009,-0.322 -0.031,-0.416l-4.503,-22.1Z" style="fill-rule:nonzero;"/><path d="M438.945,64.47c-0.463,-0.484 -1.028,-0.728 -1.697,-0.728l-6.687,0c-0.669,0 -1.235,0.231 -1.697,0.694l-1.144,1.14c-0.459,0.466 -0.691,1.032 -0.691,1.7l0,17.838c0,0.672 0.232,1.237 0.691,1.7l1.109,1.109c0.463,0.46 1.038,0.691 1.732,0.691l6.687,-0c0.669,-0 1.234,-0.231 1.697,-0.691l1.109,-1.109c0.46,-0.488 0.691,-1.063 0.691,-1.734l-0,-7.829c-0,-0.921 -0.463,-1.384 -1.384,-1.384l-3.95,0c-0.925,0 -1.385,0.463 -1.385,1.384l0,0.382c0,0.925 0.46,1.384 1.385,1.384l0.831,0c0.925,0 1.384,0.463 1.384,1.388l0,3.671c0,0.925 -0.459,1.388 -1.384,1.388l-4.675,-0c-0.925,-0 -1.385,-0.463 -1.385,-1.388l0,-15.796c0,-0.922 0.46,-1.385 1.385,-1.385l4.675,0c0.925,0 1.384,0.463 1.384,1.385l0,3.393c0,0.925 0.466,1.388 1.388,1.388l0.347,-0c0.921,-0 1.384,-0.463 1.384,-1.388l-0,-4.397c-0,-0.668 -0.231,-1.234 -0.691,-1.7l-1.109,-1.106Z" style="fill-rule:nonzero;"/><path d="M450.791,66.826l7.794,0c0.925,0 1.384,-0.462 1.384,-1.384l0,-0.381c0,-0.925 -0.459,-1.388 -1.384,-1.388l-10.913,0c-0.921,0 -1.387,0.463 -1.387,1.388l-0,19.95c-0,0.671 0.234,1.237 0.694,1.696l1.109,1.11c0.463,0.531 1.028,0.797 1.697,0.797l8.8,-0c0.925,-0 1.384,-0.485 1.384,-1.453l0,-0.382c0,-0.878 -0.459,-1.315 -1.384,-1.315l-7.794,-0c-0.925,-0 -1.384,-0.485 -1.384,-1.457l-0,-5.231c-0,-0.878 0.459,-1.315 1.384,-1.315l7.794,-0c0.925,-0 1.384,-0.485 1.384,-1.457l0,-0.381c0,-0.875 -0.459,-1.316 -1.384,-1.316l-7.794,0c-0.925,0 -1.384,-0.484 -1.384,-1.456l-0,-4.64c-0,-0.922 0.459,-1.385 1.384,-1.385" style="fill-rule:nonzero;"/><path d="M360.451,63.674l-0.382,-0c-0.922,-0 -1.384,0.472 -1.384,1.418l-0,22.104c-0,0.946 0.462,1.418 1.384,1.418l0.382,0c0.925,0 1.384,-0.472 1.384,-1.418l-0,-22.104c-0,-0.946 -0.459,-1.418 -1.384,-1.418" style="fill-rule:nonzero;"/><path d="M282.891,74.966c-0,0.922 -0.463,1.387 -1.384,1.387l-4.61,0c-0.922,0 -1.384,-0.465 -1.384,-1.387l-0,-6.685c-0,-0.925 0.462,-1.387 1.384,-1.387l4.61,-0c0.921,-0 1.384,0.462 1.384,1.387l-0,6.685Zm1.516,3.612l0.909,-0.909c0.253,-0.256 0.441,-0.516 0.556,-0.781c0.113,-0.263 0.172,-0.572 0.172,-0.916l0,-8.697c0,-0.669 -0.231,-1.234 -0.694,-1.697l-1.14,-1.143c-0.466,-0.463 -1.032,-0.694 -1.7,-0.694l-8.763,-0c-0.925,-0 -1.387,0.465 -1.387,1.387l-0,22.066c-0,0.947 0.462,1.422 1.387,1.422l0.381,-0c0.922,-0 1.385,-0.475 1.385,-1.422l-0,-6.338c-0,-0.925 0.462,-1.387 1.384,-1.387l3.572,-0c0.2,0.006 0.875,0.094 1.084,1.094l0.554,2.647l0.865,4.159c0.185,0.828 0.678,1.247 1.488,1.247l0.415,-0c0.853,-0 1.282,-0.369 1.282,-1.11c-0,-0.184 -0.013,-0.321 -0.035,-0.418l-1.715,-8.51Z" style="fill-rule:nonzero;"/></svg>